<svg xmlns="http://www.w3.org/2000/svg" width="400" height="334" viewBox="0 0 400 334"><defs><style>.a{fill:#fff;}.b{font-size:24px;font-family:RobotoMono-Bold, Roboto Mono;font-weight:700;}.c{font-size:16px;}.c,.d{font-family:RobotoMono-Regular, Roboto Mono;}.d{font-size:10px;}.e{fill:none;stroke:#000;stroke-miterlimit:10;}</style></defs><title>segment-tree-1</title><circle class="a" cx="364.5" cy="264.5" r="20"/><path d="M364.5,245A19.5,19.5,0,1,1,345,264.5,19.53,19.53,0,0,1,364.5,245m0-1A20.5,20.5,0,1,0,385,264.5,20.5,20.5,0,0,0,364.5,244Z"/><text class="b" transform="translate(357.14 272.43)">9</text><circle class="a" cx="317.5" cy="264.5" r="20"/><path d="M317.5,245A19.5,19.5,0,1,1,298,264.5,19.53,19.53,0,0,1,317.5,245m0-1A20.5,20.5,0,1,0,338,264.5,20.5,20.5,0,0,0,317.5,244Z"/><text class="b" transform="translate(310.14 272.43)">1</text><circle class="a" cx="270.5" cy="264.5" r="20"/><path d="M270.5,245A19.5,19.5,0,1,1,251,264.5,19.53,19.53,0,0,1,270.5,245m0-1A20.5,20.5,0,1,0,291,264.5,20.5,20.5,0,0,0,270.5,244Z"/><text class="b" transform="translate(264.14 272.43)">2</text><circle class="a" cx="223.5" cy="264.5" r="20"/><path d="M223.5,245A19.5,19.5,0,1,1,204,264.5,19.53,19.53,0,0,1,223.5,245m0-1A20.5,20.5,0,1,0,244,264.5,20.5,20.5,0,0,0,223.5,244Z"/><text class="b" transform="translate(217.14 272.43)">7</text><circle class="a" cx="176.5" cy="264.5" r="20"/><path d="M176.5,245A19.5,19.5,0,1,1,157,264.5,19.53,19.53,0,0,1,176.5,245m0-1A20.5,20.5,0,1,0,197,264.5,20.5,20.5,0,0,0,176.5,244Z"/><text class="b" transform="translate(170.14 272.43)">5</text><circle class="a" cx="129.5" cy="264.5" r="20"/><path d="M129.5,245A19.5,19.5,0,1,1,110,264.5,19.53,19.53,0,0,1,129.5,245m0-1A20.5,20.5,0,1,0,150,264.5,20.5,20.5,0,0,0,129.5,244Z"/><text class="b" transform="translate(123.14 272.43)">2</text><circle class="a" cx="82.5" cy="264.5" r="20"/><path d="M82.5,245A19.5,19.5,0,1,1,63,264.5,19.53,19.53,0,0,1,82.5,245m0-1A20.5,20.5,0,1,0,103,264.5,20.5,20.5,0,0,0,82.5,244Z"/><text class="b" transform="translate(76.14 272.43)">3</text><circle class="a" cx="35.5" cy="264.5" r="20"/><path d="M35.5,245A19.5,19.5,0,1,1,16,264.5,19.53,19.53,0,0,1,35.5,245m0-1A20.5,20.5,0,1,0,56,264.5,20.5,20.5,0,0,0,35.5,244Z"/><text class="b" transform="translate(28.3 272.43)">5</text><circle class="a" cx="338.5" cy="186.5" r="20"/><path d="M338.5,167A19.5,19.5,0,1,1,319,186.5,19.53,19.53,0,0,1,338.5,167m0-1A20.5,20.5,0,1,0,359,186.5,20.5,20.5,0,0,0,338.5,166Z"/><text class="b" transform="translate(324.14 194.43)">10</text><circle class="a" cx="243.5" cy="186.5" r="20"/><path d="M243.5,167A19.5,19.5,0,1,1,224,186.5,19.53,19.53,0,0,1,243.5,167m0-1A20.5,20.5,0,1,0,264,186.5,20.5,20.5,0,0,0,243.5,166Z"/><text class="b" transform="translate(237.14 194.43)">9</text><circle class="a" cx="156.5" cy="186.5" r="20"/><path d="M156.5,167A19.5,19.5,0,1,1,137,186.5,19.53,19.53,0,0,1,156.5,167m0-1A20.5,20.5,0,1,0,177,186.5,20.5,20.5,0,0,0,156.5,166Z"/><text class="b" transform="translate(150.14 194.43)">7</text><circle class="a" cx="61.5" cy="186.5" r="20"/><path d="M61.5,167A19.5,19.5,0,1,1,42,186.5,19.53,19.53,0,0,1,61.5,167m0-1A20.5,20.5,0,1,0,82,186.5,20.5,20.5,0,0,0,61.5,166Z"/><text class="b" transform="translate(54.14 194.43)">8</text><circle class="a" cx="291.5" cy="108.5" r="20"/><path d="M291.5,89A19.5,19.5,0,1,1,272,108.5,19.53,19.53,0,0,1,291.5,89m0-1A20.5,20.5,0,1,0,312,108.5,20.5,20.5,0,0,0,291.5,88Z"/><text class="b" transform="translate(277.14 116.43)">19</text><circle class="a" cx="108.5" cy="108.5" r="20"/><path d="M108.5,89A19.5,19.5,0,1,1,89,108.5,19.53,19.53,0,0,1,108.5,89m0-1A20.5,20.5,0,1,0,129,108.5,20.5,20.5,0,0,0,108.5,88Z"/><text class="b" transform="translate(94.14 116.43)">15</text><circle class="a" cx="200.5" cy="34.5" r="20"/><path d="M200.5,15A19.5,19.5,0,1,1,181,34.5,19.53,19.53,0,0,1,200.5,15m0-1A20.5,20.5,0,1,0,221,34.5,20.5,20.5,0,0,0,200.5,14Z"/><text class="b" transform="translate(186.14 42.43)">34</text><text class="c" transform="translate(168.56 70.46)">[0...7]</text><text class="c" transform="translate(76.56 143.46)">[0...3]</text><text class="c" transform="translate(258.56 143.46)">[4...7]</text><text class="c" transform="translate(26.56 222.46)">[0...1]</text><text class="c" transform="translate(121.56 222.46)">[2...3]</text><text class="c" transform="translate(212.56 224.46)">[4...5]</text><text class="c" transform="translate(303.56 222.46)">[6...7]</text><text class="c" transform="translate(29.88 305.07)">0</text><text class="c" transform="translate(76.88 305.07)">1</text><text class="c" transform="translate(126.88 305.07)">2</text><text class="c" transform="translate(173.88 305.07)">3</text><text class="c" transform="translate(219.88 305.07)">4</text><text class="c" transform="translate(266.88 305.07)">5</text><text class="c" transform="translate(316.88 305.07)">6</text><text class="c" transform="translate(363.88 305.07)">7</text><text class="d" transform="translate(14.99 319.47)">[0...0]</text><text class="d" transform="translate(61.99 319.47)">[1...1]</text><text class="d" transform="translate(108.99 319.47)">[2...2]</text><text class="d" transform="translate(156.99 319.47)">[3...3]</text><text class="d" transform="translate(202.99 319.47)">[4...4]</text><text class="d" transform="translate(249.99 319.47)">[5...5]</text><text class="d" transform="translate(296.99 319.47)">[6...6]</text><text class="d" transform="translate(343.99 319.47)">[7...7]</text><line class="e" x1="183" y1="45" x2="123" y2="94"/><line class="e" x1="218.5" y1="43.5" x2="277.5" y2="93.5"/><line class="e" x1="79.5" y1="150.5" x2="69.5" y2="167.5"/><line class="e" x1="132.5" y1="149.5" x2="144.5" y2="169.5"/><line class="e" x1="261.5" y1="152.5" x2="249.5" y2="167.5"/><line class="e" x1="321.5" y1="149.5" x2="333.5" y2="167.5"/><line class="e" x1="44.5" y1="227.5" x2="34.5" y2="244.5"/><line class="e" x1="136.5" y1="227.5" x2="126.5" y2="244.5"/><line class="e" x1="231.5" y1="227.5" x2="221.5" y2="244.5"/><line class="e" x1="326.5" y1="227.5" x2="316.5" y2="244.5"/><line class="e" x1="73.5" y1="226.5" x2="85.5" y2="244.5"/><line class="e" x1="168.5" y1="226.5" x2="180.5" y2="244.5"/><line class="e" x1="261.5" y1="226.5" x2="273.5" y2="244.5"/><line class="e" x1="353.5" y1="226.5" x2="365.5" y2="244.5"/></svg>